<svg width="26" height="24" viewBox="0 0 26 24" fill="none" xmlns="http://www.w3.org/2000/svg">
<path d="M13.0002 23.0503L11.5317 21.7378C9.36475 19.7588 7.573 18.0505 6.1565 16.613C4.74 15.1755 3.60975 13.889 2.76575 12.7535C1.92225 11.618 1.33375 10.5868 1.00025 9.65978C0.66675 8.73278 0.5 7.79003 0.5 6.83153C0.5 4.93603 1.14075 3.34753 2.42225 2.06603C3.70325 0.785031 5.28125 0.144531 7.15625 0.144531C8.32325 0.144531 9.40675 0.410031 10.4067 0.941031C11.4067 1.47253 12.2712 2.22778 13.0002 3.20678C13.8127 2.18578 14.7085 1.42028 15.6875 0.910282C16.667 0.399782 17.7192 0.144531 18.8442 0.144531C20.7192 0.144531 22.2973 0.785031 23.5783 2.06603C24.8598 3.34753 25.5005 4.93603 25.5005 6.83153C25.5005 7.79003 25.3337 8.73278 25.0002 9.65978C24.6667 10.5868 24.0782 11.618 23.2347 12.7535C22.3907 13.889 21.2605 15.1755 19.844 16.613C18.4275 18.0505 16.6357 19.7588 14.4688 21.7378L13.0002 23.0503Z" fill="black"/>
</svg>
