<svg width="24" height="26" viewBox="0 0 24 26" fill="none" xmlns="http://www.w3.org/2000/svg">
<path d="M19.656 25.8325C18.6355 25.8325 17.7763 25.4783 17.0783 24.7698C16.3802 24.0613 16.0312 23.207 16.0312 22.207C16.0312 22.0615 16.0417 21.895 16.0627 21.7075C16.0833 21.52 16.1248 21.3533 16.1873 21.2073L6.9375 15.832C6.604 16.1655 6.2135 16.4365 5.766 16.645C5.318 16.853 4.85425 16.957 4.37475 16.957C3.37475 16.957 2.52075 16.603 1.81275 15.895C1.10425 15.1865 0.75 14.3323 0.75 13.3323C0.75 12.3323 1.10425 11.478 1.81275 10.7695C2.52075 10.0615 3.37475 9.70753 4.37475 9.70753C4.85425 9.70753 5.31275 9.80128 5.75025 9.98878C6.18775 10.1763 6.5835 10.4365 6.9375 10.7695L16.1873 5.42578C16.1248 5.30078 16.0833 5.14978 16.0627 4.97278C16.0417 4.79578 16.0312 4.62403 16.0312 4.45753C16.0312 3.45753 16.3802 2.60328 17.0783 1.89478C17.7763 1.18628 18.6355 0.832031 19.656 0.832031C20.656 0.832031 21.5103 1.18628 22.2188 1.89478C22.9272 2.60328 23.2815 3.45753 23.2815 4.45753C23.2815 5.45753 22.9272 6.31153 22.2188 7.01953C21.5103 7.72803 20.656 8.08228 19.656 8.08228C19.156 8.08228 18.6873 7.99903 18.2498 7.83253C17.8123 7.66553 17.427 7.41553 17.094 7.08253L7.8435 12.301C7.8855 12.447 7.922 12.6188 7.953 12.8163C7.9845 13.0143 8.00025 13.1863 8.00025 13.3323C8.00025 13.4783 7.9845 13.6345 7.953 13.801C7.922 13.9675 7.8855 14.1238 7.8435 14.2698L17.094 19.5513C17.427 19.2593 17.807 19.0248 18.234 18.8478C18.6615 18.6708 19.1355 18.5823 19.656 18.5823C20.656 18.5823 21.5103 18.9365 22.2188 19.645C22.9272 20.353 23.2815 21.207 23.2815 22.207C23.2815 23.207 22.9272 24.0613 22.2188 24.7698C21.5103 25.4783 20.656 25.8325 19.656 25.8325ZM19.656 5.98828C20.0935 5.98828 20.4583 5.84253 20.7502 5.55103C21.0417 5.25953 21.1875 4.89503 21.1875 4.45753C21.1875 4.02003 21.0417 3.65528 20.7502 3.36328C20.4583 3.07178 20.0935 2.92603 19.656 2.92603C19.2185 2.92603 18.8487 3.07178 18.5467 3.36328C18.2448 3.65528 18.0938 4.02003 18.0938 4.45753C18.0938 4.89503 18.2448 5.25953 18.5467 5.55103C18.8487 5.84253 19.2185 5.98828 19.656 5.98828ZM4.37475 14.8638C4.81225 14.8638 5.177 14.7178 5.469 14.4258C5.7605 14.1343 5.90625 13.7698 5.90625 13.3323C5.90625 12.8948 5.7605 12.5303 5.469 12.2388C5.177 11.9468 4.81225 11.8008 4.37475 11.8008C3.93725 11.8008 3.57275 11.9468 3.28125 12.2388C2.98975 12.5303 2.844 12.8948 2.844 13.3323C2.844 13.7698 2.98975 14.1343 3.28125 14.4258C3.57275 14.7178 3.93725 14.8638 4.37475 14.8638ZM19.656 23.7385C20.0935 23.7385 20.4583 23.5928 20.7502 23.3013C21.0417 23.0093 21.1875 22.6445 21.1875 22.207C21.1875 21.7695 21.0417 21.405 20.7502 21.1135C20.4583 20.822 20.0935 20.6763 19.656 20.6763C19.2185 20.6763 18.8487 20.822 18.5467 21.1135C18.2448 21.405 18.0938 21.7695 18.0938 22.207C18.0938 22.6445 18.2448 23.0093 18.5467 23.3013C18.8487 23.5928 19.2185 23.7385 19.656 23.7385Z" fill="#292929"/>
</svg>
