<svg width="28" height="20" viewBox="0 0 28 20" fill="none" xmlns="http://www.w3.org/2000/svg">
<path d="M14.0002 15.613C15.5002 15.613 16.7762 15.087 17.8282 14.035C18.8802 12.983 19.4062 11.707 19.4062 10.207C19.4062 8.70703 18.8802 7.43103 17.8282 6.37903C16.7762 5.32653 15.5002 4.80028 14.0002 4.80028C12.5002 4.80028 11.2242 5.32653 10.1722 6.37903C9.12024 7.43103 8.59424 8.70703 8.59424 10.207C8.59424 11.707 9.12024 12.983 10.1722 14.035C11.2242 15.087 12.5002 15.613 14.0002 15.613ZM14.0002 13.6758C13.0417 13.6758 12.224 13.3373 11.547 12.6603C10.87 11.9828 10.5315 11.165 10.5315 10.207C10.5315 9.24853 10.87 8.43078 11.547 7.75378C12.224 7.07678 13.0417 6.73828 14.0002 6.73828C14.9587 6.73828 15.7765 7.07678 16.4535 7.75378C17.1305 8.43078 17.469 9.24853 17.469 10.207C17.469 11.165 17.1305 11.9828 16.4535 12.6603C15.7765 13.3373 14.9587 13.6758 14.0002 13.6758ZM14.0002 19.582C10.9587 19.582 8.20349 18.7225 5.73449 17.0035C3.26599 15.285 1.43799 13.0195 0.250488 10.207C1.43799 7.39453 3.26599 5.12878 5.73449 3.40978C8.20349 1.69128 10.9587 0.832031 14.0002 0.832031C17.0417 0.832031 19.797 1.69128 22.266 3.40978C24.7345 5.12878 26.5625 7.39453 27.75 10.207C26.5625 13.0195 24.7345 15.285 22.266 17.0035C19.797 18.7225 17.0417 19.582 14.0002 19.582ZM14.0002 17.488C16.4587 17.488 18.7242 16.8265 20.7967 15.5035C22.8697 14.1805 24.448 12.415 25.5315 10.207C24.448 7.99853 22.875 6.23278 20.8125 4.90978C18.75 3.58678 16.4792 2.92528 14.0002 2.92528C11.5417 2.92528 9.27624 3.58678 7.20374 4.90978C5.13074 6.23278 3.55249 7.99853 2.46899 10.207C3.55249 12.415 5.12549 14.1805 7.18799 15.5035C9.25049 16.8265 11.5212 17.488 14.0002 17.488Z" fill="#A3A3A3"/>
</svg>
