<svg width="28" height="34" viewBox="0 0 28 34" fill="none" xmlns="http://www.w3.org/2000/svg">
<path d="M0.666992 28.667V25.875H4.12499V13.5C4.12499 11.1667 4.81266 9.09734 6.18799 7.29201C7.56266 5.48601 9.37499 4.33301 11.625 3.83301V2.62501C11.625 1.98634 11.854 1.44467 12.312 1.00001C12.7707 0.555341 13.3333 0.333008 14 0.333008C14.6667 0.333008 15.2293 0.555341 15.688 1.00001C16.146 1.44467 16.375 1.98634 16.375 2.62501V3.83301C18.625 4.33301 20.4443 5.48601 21.833 7.29201C23.2223 9.09734 23.917 11.1667 23.917 13.5V25.875H27.333V28.667H0.666992ZM14 33.667C13.1113 33.667 12.3337 33.3407 11.667 32.688C11.0003 32.0347 10.667 31.2497 10.667 30.333H17.333C17.333 31.2497 17.0067 32.0347 16.354 32.688C15.7013 33.3407 14.9167 33.667 14 33.667ZM6.87499 25.875H21.125V13.5C21.125 11.528 20.4373 9.84067 19.062 8.43801C17.6873 7.03467 16.014 6.33301 14.042 6.33301C12.042 6.33301 10.3473 7.03467 8.95799 8.43801C7.56933 9.84067 6.87499 11.528 6.87499 13.5V25.875Z" fill="#A0A0A0"/>
</svg>
