<svg width="30" height="31" viewBox="0 0 30 31" fill="none" xmlns="http://www.w3.org/2000/svg">
<path d="M28 30.958L17.208 20.167C16.3747 20.861 15.4027 21.4093 14.292 21.812C13.1807 22.2153 12.014 22.417 10.792 22.417C7.764 22.417 5.20833 21.3753 3.125 19.292C1.04167 17.2087 0 14.6807 0 11.708C0 8.73601 1.04167 6.20134 3.125 4.10401C5.20833 2.00667 7.75 0.958008 10.75 0.958008C13.722 0.958008 16.2497 2.00667 18.333 4.10401C20.4163 6.20134 21.458 8.73601 21.458 11.708C21.458 12.9027 21.2637 14.0487 20.875 15.146C20.4863 16.2433 19.917 17.264 19.167 18.208L30 28.958L28 30.958ZM10.75 19.625C12.9447 19.625 14.8127 18.854 16.354 17.312C17.896 15.7707 18.667 13.9027 18.667 11.708C18.667 9.51401 17.896 7.63901 16.354 6.08301C14.8127 4.52767 12.9447 3.75001 10.75 3.75001C8.528 3.75001 6.646 4.52767 5.104 6.08301C3.56267 7.63901 2.792 9.51401 2.792 11.708C2.792 13.9027 3.56267 15.7707 5.104 17.312C6.646 18.854 8.528 19.625 10.75 19.625Z" fill="#B6B6B6"/>
</svg>
